<?xml version="1.0" standalone="no"?>
<!DOCTYPE svg PUBLIC "-//W3C//DTD SVG 20010904//EN"
 "http://www.w3.org/TR/2001/REC-SVG-20010904/DTD/svg10.dtd">
<svg version="1.0" xmlns="http://www.w3.org/2000/svg"
 width="1125.000000pt" height="1125.000000pt" viewBox="0 0 1125.000000 1125.000000"
 preserveAspectRatio="xMidYMid meet">
<metadata>
Created by potrace 1.11, written by Peter Selinger 2001-2013
</metadata>
<g transform="translate(0.000000,1125.000000) scale(0.100000,-0.100000)"
fill="#000000" stroke="none">
<path d="M5883 11168 c-27 -46 -53 -92 -60 -103 -7 -11 -16 -27 -20 -35 -4 -8
-33 -59 -65 -113 -32 -54 -58 -101 -58 -105 0 -3 -6 -13 -14 -21 -7 -9 -26
-41 -42 -71 -15 -30 -33 -62 -40 -70 -6 -8 -26 -42 -44 -75 -17 -33 -35 -64
-40 -70 -4 -5 -19 -30 -32 -55 -42 -75 -357 -621 -389 -673 -16 -27 -29 -50
-29 -53 0 -2 675 -4 1500 -4 1013 0 1500 3 1500 10 0 6 11 27 23 48 13 20 35
57 49 82 24 43 156 272 195 338 10 17 56 98 103 179 47 81 97 168 111 193 317
550 389 674 389 677 0 2 -673 3 -1495 3 l-1494 0 -48 -82z"/>
<path d="M9246 11203 c-15 -27 -35 -62 -46 -79 -10 -18 -64 -112 -121 -210
-56 -99 -166 -289 -244 -424 -78 -135 -195 -337 -260 -450 -122 -213 -187
-324 -280 -484 l-54 -95 -4 -2843 c-2 -1564 -7 -2859 -10 -2878 -4 -19 -11
-66 -17 -105 -11 -80 -11 -78 -40 -205 -183 -787 -769 -1452 -1535 -1741 -61
-22 -117 -43 -125 -45 -8 -2 -67 -17 -130 -34 -63 -17 -162 -37 -220 -46 -58
-8 -118 -17 -135 -21 -50 -10 -965 -12 -1040 -2 -112 14 -147 20 -195 31 -25
5 -52 11 -60 13 -330 70 -747 295 -1039 560 -76 69 -234 228 -291 295 -30 35
-60 68 -65 74 -6 6 -26 31 -45 56 -19 25 -38 50 -43 55 -48 59 -147 202 -233
335 -97 152 -253 448 -338 640 -15 36 -35 80 -43 98 -109 246 -287 813 -339
1077 -2 11 -9 44 -15 74 l-11 54 -85 -144 c-47 -79 -94 -160 -104 -179 -11
-19 -23 -42 -29 -50 -5 -8 -50 -87 -101 -175 -87 -151 -153 -267 -239 -415
-21 -36 -83 -143 -138 -237 l-99 -173 13 -62 c131 -593 307 -1033 599 -1499
84 -134 99 -155 226 -324 439 -582 1032 -1044 1705 -1329 149 -62 291 -114
419 -151 86 -25 103 -30 143 -39 9 -2 55 -13 102 -24 47 -11 103 -23 125 -28
22 -4 47 -9 55 -11 8 -1 33 -6 55 -9 22 -3 49 -8 60 -9 11 -2 45 -6 75 -10 30
-3 64 -8 75 -10 130 -27 807 -27 930 0 11 3 38 7 60 9 94 10 259 40 375 67 69
17 132 32 140 34 73 15 358 113 490 167 118 49 370 172 490 239 131 74 491
323 558 386 7 7 33 29 59 50 65 53 170 152 276 258 501 506 882 1155 1087
1854 12 41 24 82 26 92 5 24 13 54 19 76 7 27 35 144 40 173 3 14 10 45 15 70
14 65 29 157 35 215 4 28 8 60 10 73 2 13 7 51 10 85 3 34 9 80 12 102 4 22 8
1668 10 3658 l3 3617 -248 0 -249 0 -27 -47z"/>
</g>
</svg>
